<?xml version="1.0" standalone="no"?><svg xmlns="http://www.w3.org/2000/svg" viewBox="0 0 1440 320"><path fill="#ff5500" fill-opacity="1" d="M0,96L30,117.3C60,139,120,181,180,213.3C240,245,300,267,360,266.7C420,267,480,245,540,240C600,235,660,245,720,229.3C780,213,840,171,900,181.3C960,192,1020,256,1080,272C1140,288,1200,256,1260,256C1320,256,1380,288,1410,304L1440,320L1440,0L1410,0C1380,0,1320,0,1260,0C1200,0,1140,0,1080,0C1020,0,960,0,900,0C840,0,780,0,720,0C660,0,600,0,540,0C480,0,420,0,360,0C300,0,240,0,180,0C120,0,60,0,30,0L0,0Z"></path></svg>